<svg width="33" height="62" viewBox="0 0 33 62" fill="none" xmlns="http://www.w3.org/2000/svg">
<path d="M0 43.0983C0 42.1572 0.0792 41.2312 0.230057 40.3316C1.39166 33.415 6.8376 27.9572 13.7393 26.7931C14.6369 26.6419 15.5571 26.5626 16.5 26.5626C17.4429 26.5626 18.3631 26.6419 19.2607 26.7931C26.1624 27.9572 31.6083 33.415 32.7699 40.3316C32.9208 41.2312 33 42.1534 33 43.0983C33 43.9714 32.9321 44.8293 32.8001 45.6646L16.5 62L0.199886 45.6646C0.0678857 44.8293 0 43.9714 0 43.0983Z" fill="#FC9B00"/>
<path d="M33 20.9017C33 21.8466 32.9208 22.7689 32.7699 23.6684C32.4758 25.4259 31.9025 27.0889 31.103 28.6121C28.7496 24.1408 24.4087 20.8828 19.2607 20.0135C18.3631 19.8586 17.4391 19.783 16.5 19.783C15.5609 19.783 14.6369 19.8586 13.7393 20.0135C8.59131 20.8828 4.2504 24.1408 1.89703 28.6121C1.09749 27.0889 0.524229 25.4259 0.230057 23.6684C0.0792 22.7689 0 21.8466 0 20.9017C0 20.0286 0.0678857 19.1707 0.199886 18.3354L16.5 2L32.8001 18.3354C32.9321 19.1707 33 20.0286 33 20.9017Z" fill="#FC9B00"/>
</svg>
